<?xml version="1.0" encoding="utf-8"?>
<!-- Generator: Adobe Illustrator 16.0.0, SVG Export Plug-In . SVG Version: 6.00 Build 0)  -->
<!DOCTYPE svg PUBLIC "-//W3C//DTD SVG 1.1//EN" "http://www.w3.org/Graphics/SVG/1.1/DTD/svg11.dtd">
<svg version="1.1" id="Layer_1" xmlns="http://www.w3.org/2000/svg" xmlns:xlink="http://www.w3.org/1999/xlink" x="0px" y="0px"
	 width="193px" height="24px" viewBox="0 0 193 24" enable-background="new 0 0 193 24" xml:space="preserve">
<g>
	<path fill="#42BA72" d="M73.13,0.744h17.405v0.002l-0.499,2.859c-0.159,1.256-1.22,2.245-2.52,2.247L72.155,5.852
		c-1.137,0.029-2.08,0.804-2.377,1.854L70.1,5.852l0.507-2.875C70.767,1.719,71.829,0.744,73.13,0.744"/>
	<path fill="#42BA72" d="M21.453,4.01l-4.039,3.885c-0.887-1.499-2.325-2.233-4.376-2.233c-4.437,0-7.068,2.969-7.068,7.864
		c0,3.029,1.867,4.837,4.652,4.837c1.989,0,3.733-0.735,5.201-2.203l3.122,4.619c-2.265,1.928-5.141,2.876-8.661,2.876
		c-3.152,0-5.63-0.886-7.467-2.662c-1.835-1.804-2.754-4.19-2.754-7.161c0-3.641,1.286-6.792,3.887-9.454
		c2.6-2.663,5.723-4.01,9.425-4.01C17.17,0.367,19.372,1.531,21.453,4.01"/>
	<path fill="#42BA72" d="M59.167,0.742c2.081,0,3.825,0.611,5.233,1.836c1.438,1.225,2.142,2.816,2.142,4.774
		c0,3.396-1.99,6.149-5.019,7.498l3.427,8.385h-6.242l-2.969-7.467h-2.662l-1.316,7.467h-5.814l3.948-22.493H59.167z M54.852,5.73
		l-0.917,5.049h3.488c1.744,0,3.183-1.193,3.183-3.028c0-1.255-0.888-2.021-2.266-2.021H54.852z"/>
	<path fill="#05406B" d="M109.671,2.977l-3.609,4.376c-1.195-1.132-2.815-1.714-4.806-1.714c-1.743,0-2.998,0.552-2.998,1.744
		c0,0.857,0.735,1.347,3.273,1.836c4.865,0.948,6.673,3.029,6.673,6.305c0,5.753-4.897,8.109-9.823,8.109
		c-3.765,0-6.702-1.102-8.814-3.306l3.611-4.438c0.551,0.766,1.347,1.348,2.417,1.807c1.07,0.427,2.172,0.643,3.244,0.643
		c2.233,0,3.367-0.613,3.367-1.806c0-0.888-0.766-1.376-3.367-1.898c-4.314-0.886-6.458-2.968-6.458-6.273
		c0-2.294,0.858-4.223,2.572-5.722c1.745-1.53,3.916-2.295,6.578-2.295C104.989,0.345,107.683,1.232,109.671,2.977"/>
	<polygon fill="#05406B" points="131.475,0.742 130.589,5.853 123.732,5.853 120.674,23.235 114.859,23.235 117.92,5.853 
		111.064,5.853 111.953,0.742 	"/>
	<path fill="#05406B" d="M170.492,3.986l-4.039,3.887c-0.889-1.5-2.326-2.234-4.377-2.234c-4.437,0-7.068,2.969-7.068,7.863
		c0,3.031,1.866,4.837,4.652,4.837c1.987,0,3.732-0.735,5.201-2.204l3.121,4.62c-2.263,1.93-5.141,2.878-8.66,2.878
		c-3.151,0-5.629-0.888-7.467-2.662c-1.835-1.806-2.754-4.192-2.754-7.163c0-3.641,1.285-6.792,3.887-9.454
		c2.6-2.662,5.722-4.009,9.426-4.009C166.208,0.345,168.411,1.508,170.492,3.986"/>
	<polygon fill="#05406B" points="182.117,11.32 192.938,0.742 186.067,0.742 177.685,8.957 179.132,0.742 173.36,0.742 
		169.402,23.229 175.174,23.229 176.396,16.292 177.626,15.08 182.697,23.229 189.535,23.229 	"/>
	<path fill="#42BA72" d="M71.605,9.438H89.01v0.001l-0.499,2.858c-0.159,1.258-1.218,2.246-2.52,2.246H70.629
		c-1.136,0.031-2.08,0.804-2.376,1.855l0.323-1.855l0.507-2.874C69.243,10.412,70.304,9.438,71.605,9.438"/>
	<path fill="#42BA72" d="M67.048,23.235l0.506-2.877c0.162-1.257,1.223-2.231,2.525-2.231h17.404l0,0l-0.499,2.859
		c-0.159,1.257-1.219,2.245-2.52,2.249H67.048z"/>
	<polygon fill="#42BA72" points="44.241,23.243 38.027,8.528 34.745,0.744 32.4,4.264 32.4,4.264 19.768,23.235 19.772,23.235 
		25.586,23.235 25.587,23.231 26.651,23.231 33.608,12.781 38.022,23.237 	"/>
	<polygon fill="#05406B" points="148.953,23.243 142.74,8.528 139.457,0.744 137.113,4.264 137.113,4.264 124.479,23.235 
		124.483,23.235 130.299,23.235 130.3,23.231 131.363,23.231 138.321,12.781 142.734,23.237 	"/>
</g>
</svg>
