<?xml version="1.0" encoding="utf-8"?>
<!-- Generator: Adobe Illustrator 16.0.0, SVG Export Plug-In . SVG Version: 6.00 Build 0)  -->
<!DOCTYPE svg PUBLIC "-//W3C//DTD SVG 1.1//EN" "http://www.w3.org/Graphics/SVG/1.1/DTD/svg11.dtd">
<svg version="1.1" id="Layer_1" xmlns="http://www.w3.org/2000/svg" xmlns:xlink="http://www.w3.org/1999/xlink" x="0px" y="0px"
	 width="165px" height="92px" viewBox="0 0 165 92" enable-background="new 0 0 165 92" xml:space="preserve">
<g>
	<g>
		<polygon fill="#00AEEF" points="66.222,26.136 56.851,31.594 55.362,23.656 64.403,16.325 		"/>
		<polygon fill="#00AEEF" points="84.137,15.167 75.097,20.349 73.003,8.332 82.042,1 		"/>
		<polygon fill="#00AEEF" points="95.933,25.531 86.232,28.837 84.137,15.222 93.397,10.151 		"/>
		<polygon fill="#00AEEF" points="108.116,39.642 98.028,40.579 95.823,24.813 105.579,22.499 		"/>
		<polygon fill="#00AEEF" points="88.768,41.957 79.01,43.886 77.136,32.09 86.563,28.121 		"/>
		<polygon fill="#00AEEF" points="100.729,55.957 90.642,55.682 88.602,41.846 98.358,40.193 		"/>
		<polygon fill="#00AEEF" points="77.191,32.198 67.875,35.946 66.167,26.026 75.262,20.236 		"/>
		<polygon fill="#00AEEF" points="69.75,45.979 60.048,47.744 58.394,39.806 67.931,36.112 		"/>
		<polygon fill="#00AEEF" points="81.16,55.846 71.348,55.846 69.584,45.815 79.176,43.94 		"/>
		<polygon fill="#00AEEF" points="61.702,55.736 51.725,55.295 50.291,49.012 59.993,47.578 		"/>
		<polygon fill="#00AEEF" points="58.669,39.806 49.188,43.168 47.59,36.553 56.906,31.647 		"/>
		<polygon fill="#00AEEF" points="50.512,49.287 40.7,49.893 39.487,45.153 49.133,43.113 		"/>
	</g>
	<g>
		<path fill="#0B9444" d="M31.452,61.771h2.189v4.32h0.043c0.218-0.377,0.45-0.725,0.667-1.073l2.218-3.247h2.711l-3.233,4.16
			l3.407,5.61h-2.58l-2.392-4.219l-0.841,1.029v3.189h-2.189V61.771z"/>
		<path fill="#0B9444" d="M53.882,67.41h-3.595v2.319h4.015v1.812h-6.233v-9.771h6.03v1.813h-3.812v2.029h3.595V67.41z"/>
		<path fill="#0B9444" d="M63.526,61.901c0.71-0.116,1.769-0.203,2.943-0.203c1.45,0,2.464,0.218,3.16,0.769
			c0.58,0.464,0.898,1.145,0.898,2.044c0,1.246-0.884,2.102-1.725,2.406v0.043c0.681,0.275,1.058,0.928,1.305,1.827
			c0.304,1.102,0.608,2.377,0.797,2.754h-2.261c-0.16-0.275-0.391-1.072-0.681-2.275c-0.261-1.218-0.682-1.552-1.58-1.566h-0.667
			v3.842h-2.189V61.901z M65.715,66.105h0.87c1.102,0,1.754-0.551,1.754-1.406c0-0.899-0.609-1.349-1.624-1.363
			c-0.537,0-0.841,0.044-1,0.073V66.105z"/>
		<path fill="#0B9444" d="M82.244,69.033l-0.695,2.508h-2.291l2.986-9.771h2.899l3.029,9.771h-2.377l-0.754-2.508H82.244z
			 M84.723,67.381l-0.608-2.073c-0.174-0.58-0.348-1.305-0.493-1.884h-0.028c-0.146,0.579-0.29,1.318-0.45,1.884l-0.579,2.073
			H84.723z"/>
		<path fill="#0B9444" d="M97.195,61.771h2.218v7.915h3.885v1.855h-6.103V61.771z"/>
		<path fill="#0B9444" d="M114.681,69.033l-0.695,2.508h-2.291l2.986-9.771h2.899l3.029,9.771h-2.377l-0.754-2.508H114.681z
			 M117.159,67.381l-0.608-2.073c-0.174-0.58-0.348-1.305-0.493-1.884h-0.028c-0.146,0.579-0.29,1.318-0.45,1.884L115,67.381
			H117.159z"/>
	</g>
	<g>
		<g>
			<path fill="#231F20" d="M1.334,88.049c0.771,0.395,1.955,0.789,3.177,0.789c1.316,0,2.011-0.545,2.011-1.372
				c0-0.79-0.602-1.241-2.124-1.786c-2.105-0.732-3.478-1.898-3.478-3.74c0-2.162,1.805-3.816,4.793-3.816
				c1.429,0,2.481,0.301,3.233,0.639l-0.639,2.313c-0.508-0.244-1.41-0.602-2.65-0.602c-1.241,0-1.843,0.564-1.843,1.222
				c0,0.809,0.715,1.166,2.35,1.786c2.237,0.827,3.29,1.992,3.29,3.778c0,2.124-1.635,3.929-5.113,3.929
				c-1.447,0-2.876-0.375-3.59-0.771L1.334,88.049z"/>
			<path fill="#231F20" d="M13.625,80.736h-3.403V78.33h9.738v2.406h-3.459V91h-2.876V80.736z"/>
			<path fill="#231F20" d="M22.871,87.748L21.968,91h-2.97l3.872-12.67h3.76L30.56,91h-3.083l-0.978-3.252H22.871z M26.085,85.604
				l-0.79-2.688c-0.226-0.752-0.451-1.691-0.639-2.443h-0.038c-0.188,0.752-0.376,1.711-0.583,2.443l-0.752,2.688H26.085z"/>
			<path fill="#231F20" d="M32.04,78.499c0.921-0.15,2.293-0.264,3.816-0.264c1.88,0,3.195,0.282,4.098,0.997
				c0.752,0.602,1.166,1.484,1.166,2.65c0,1.616-1.147,2.726-2.237,3.12v0.057c0.884,0.357,1.372,1.203,1.692,2.368
				c0.395,1.43,0.79,3.084,1.034,3.572h-2.933c-0.207-0.357-0.507-1.391-0.883-2.951c-0.338-1.579-0.883-2.012-2.049-2.03h-0.864V91
				H32.04V78.499z M34.878,83.95h1.128c1.429,0,2.274-0.714,2.274-1.823c0-1.166-0.79-1.748-2.105-1.768
				c-0.695,0-1.09,0.057-1.297,0.095V83.95z"/>
			<path fill="#231F20" d="M45.42,80.736h-3.403V78.33h9.738v2.406h-3.459V91H45.42V80.736z"/>
			<path fill="#231F20" d="M55.924,78.33v7.293c0,2.182,0.827,3.29,2.293,3.29c1.504,0,2.331-1.053,2.331-3.29V78.33h2.857v7.105
				c0,3.91-1.974,5.771-5.283,5.771c-3.195,0-5.075-1.768-5.075-5.809V78.33H55.924z"/>
			<path fill="#231F20" d="M65.676,78.499c0.883-0.15,2.125-0.264,3.873-0.264c1.767,0,3.026,0.339,3.873,1.016
				c0.808,0.639,1.354,1.691,1.354,2.933c0,1.24-0.414,2.293-1.166,3.008c-0.978,0.921-2.425,1.334-4.117,1.334
				c-0.376,0-0.714-0.019-0.978-0.056V91h-2.838V78.499z M68.514,84.251c0.245,0.057,0.545,0.075,0.959,0.075
				c1.522,0,2.463-0.771,2.463-2.067c0-1.166-0.809-1.861-2.237-1.861c-0.583,0-0.978,0.057-1.185,0.112V84.251z"/>
			<path fill="#231F20" d="M90.691,86.15c-0.057-1.523-0.113-3.365-0.113-5.208h-0.057c-0.395,1.617-0.92,3.422-1.41,4.907
				l-1.541,4.943h-2.236l-1.354-4.906c-0.414-1.485-0.846-3.29-1.147-4.944h-0.038c-0.075,1.711-0.131,3.666-0.226,5.245L82.345,91
				h-2.651l0.809-12.67h3.816l1.24,4.229c0.396,1.466,0.791,3.045,1.072,4.53h0.057c0.357-1.467,0.789-3.14,1.203-4.549l1.354-4.211
				h3.74L93.68,91h-2.801L90.691,86.15z"/>
			<path fill="#231F20" d="M98.543,78.33V91h-2.877V78.33H98.543z"/>
			<path fill="#231F20" d="M100.91,88.049c0.77,0.395,1.955,0.789,3.176,0.789c1.316,0,2.012-0.545,2.012-1.372
				c0-0.79-0.602-1.241-2.125-1.786c-2.105-0.732-3.477-1.898-3.477-3.74c0-2.162,1.805-3.816,4.793-3.816
				c1.43,0,2.482,0.301,3.234,0.639l-0.641,2.313c-0.506-0.244-1.408-0.602-2.65-0.602c-1.24,0-1.842,0.564-1.842,1.222
				c0,0.809,0.715,1.166,2.35,1.786c2.238,0.827,3.291,1.992,3.291,3.778c0,2.124-1.637,3.929-5.113,3.929
				c-1.449,0-2.877-0.375-3.592-0.771L100.91,88.049z"/>
			<path fill="#231F20" d="M110.85,88.049c0.771,0.395,1.955,0.789,3.178,0.789c1.314,0,2.012-0.545,2.012-1.372
				c0-0.79-0.602-1.241-2.125-1.786c-2.105-0.732-3.479-1.898-3.479-3.74c0-2.162,1.805-3.816,4.795-3.816
				c1.428,0,2.48,0.301,3.232,0.639l-0.639,2.313c-0.508-0.244-1.41-0.602-2.65-0.602s-1.842,0.564-1.842,1.222
				c0,0.809,0.713,1.166,2.35,1.786c2.236,0.827,3.289,1.992,3.289,3.778c0,2.124-1.635,3.929-5.113,3.929
				c-1.447,0-2.877-0.375-3.59-0.771L110.85,88.049z"/>
			<path fill="#231F20" d="M123.572,78.33V91h-2.877V78.33H123.572z"/>
			<path fill="#231F20" d="M137.443,84.533c0,4.154-2.52,6.674-6.223,6.674c-3.76,0-5.959-2.839-5.959-6.448
				c0-3.798,2.426-6.636,6.166-6.636C135.318,78.123,137.443,81.037,137.443,84.533z M128.289,84.702
				c0,2.481,1.164,4.229,3.082,4.229c1.938,0,3.045-1.842,3.045-4.305c0-2.274-1.09-4.229-3.063-4.229
				C129.416,80.397,128.289,82.24,128.289,84.702z"/>
			<path fill="#231F20" d="M139.111,91V78.33h3.348l2.631,4.643c0.752,1.335,1.504,2.914,2.068,4.343h0.057
				c-0.188-1.673-0.244-3.384-0.244-5.282V78.33h2.631V91h-3.008l-2.707-4.888c-0.752-1.354-1.578-2.989-2.199-4.474l-0.057,0.019
				c0.076,1.673,0.113,3.459,0.113,5.526V91H139.111z"/>
		</g>
	</g>
	<g>
		<path d="M152.38,79.527h-1.63v-1.152h4.664v1.152h-1.657v4.915h-1.377V79.527z"/>
		<path d="M161.138,82.12c-0.027-0.729-0.054-1.612-0.054-2.494h-0.027c-0.188,0.774-0.441,1.639-0.675,2.35l-0.738,2.368h-1.071
			l-0.648-2.351c-0.198-0.711-0.405-1.575-0.549-2.367h-0.019c-0.036,0.819-0.063,1.756-0.107,2.512l-0.108,2.305h-1.27l0.388-6.067
			h1.827l0.594,2.025c0.189,0.702,0.379,1.458,0.514,2.169h0.027c0.171-0.702,0.378-1.503,0.576-2.178l0.647-2.017h1.792
			l0.333,6.067h-1.342L161.138,82.12z"/>
	</g>
</g>
</svg>
