<?xml version="1.0" standalone="no"?>
<!DOCTYPE svg PUBLIC "-//W3C//DTD SVG 20010904//EN"
 "http://www.w3.org/TR/2001/REC-SVG-20010904/DTD/svg10.dtd">
<svg version="1.0" xmlns="http://www.w3.org/2000/svg"
 width="300.000000pt" height="225.000000pt" viewBox="0 0 300.000000 225.000000"
 preserveAspectRatio="xMidYMid meet">
<metadata>
Created by potrace 1.15, written by Peter Selinger 2001-2017
</metadata>
<g transform="translate(0.000000,225.000000) scale(0.100000,-0.100000)"
fill="#000000" stroke="none">
<path d="M1557 1484 c-11 -11 -8 -584 3 -585 5 0 34 -1 63 -1 l52 -1 5 138 c5
135 6 138 32 158 38 28 75 17 94 -30 11 -26 15 -66 13 -147 l-3 -111 58 -5
c31 -3 59 -3 62 -1 8 9 4 277 -6 312 -25 89 -135 128 -212 75 l-38 -25 0 114
0 115 -58 0 c-32 0 -61 -3 -65 -6z"/>
<path d="M203 1456 c-112 -36 -160 -122 -119 -220 18 -42 50 -67 133 -102 102
-43 126 -79 80 -122 -29 -27 -107 -30 -167 -6 -23 9 -42 15 -43 13 -11 -15
-24 -96 -18 -102 27 -27 200 -35 264 -13 50 18 76 42 98 91 25 53 23 92 -4
140 -19 34 -38 48 -122 90 -83 42 -100 54 -103 75 -4 44 11 55 80 55 35 0 75
-3 89 -7 25 -7 27 -5 38 38 6 25 9 49 6 54 -7 11 -97 30 -138 29 -18 0 -51 -6
-74 -13z"/>
<path d="M1330 1446 l-45 -12 -3 -224 c-2 -204 -1 -228 16 -260 27 -49 55 -61
134 -58 37 2 69 6 71 8 3 3 2 23 -2 45 -6 38 -8 40 -44 43 -49 4 -59 28 -55
136 l3 81 45 5 45 5 0 40 0 40 -45 5 -45 5 -3 78 c-3 84 -1 82 -72 63z"/>
<path d="M2255 1446 l-40 -13 -3 -224 c-2 -152 1 -233 9 -252 20 -47 55 -67
120 -67 72 0 89 6 89 34 0 51 -11 66 -46 66 -46 0 -55 22 -52 128 l3 87 43 3
42 3 0 44 0 44 -42 3 -43 3 -3 78 c-3 86 -3 85 -77 63z"/>
<path d="M953 1383 c-40 -20 -43 -36 -5 -27 26 7 26 6 10 -12 -9 -10 -24 -53
-32 -94 -45 -207 -44 -193 -9 -184 16 5 24 19 34 67 17 78 18 119 4 113 -7 -2
-10 7 -6 28 4 30 5 30 11 6 l7 -25 13 30 c16 39 25 115 14 114 -5 0 -24 -8
-41 -16z"/>
<path d="M1128 1380 c-45 -24 -55 -39 -23 -32 16 3 27 -1 31 -11 3 -8 -8 -68
-24 -133 -31 -121 -31 -144 -4 -144 22 0 102 49 102 62 0 6 -8 4 -18 -5 -48
-43 -51 -12 -17 138 33 140 24 163 -47 125z"/>
<path d="M2585 1298 c-81 -28 -130 -116 -123 -221 5 -83 38 -135 103 -167 41
-20 58 -22 142 -18 52 3 99 10 105 16 8 8 8 22 2 44 l-10 33 -86 0 c-78 0 -89
2 -112 24 -49 46 -38 51 103 51 147 0 146 -1 135 81 -9 65 -54 136 -99 155
-39 16 -116 17 -160 2z"/>
<path d="M440 1291 c0 -6 34 -94 75 -198 l76 -187 -19 -25 c-10 -15 -37 -36
-60 -49 l-41 -23 14 -45 c7 -25 15 -48 17 -50 2 -2 20 1 39 6 52 15 111 70
148 140 34 63 161 400 161 426 0 11 -15 14 -65 14 l-64 0 -7 -37 c-3 -21 -12
-58 -19 -83 -7 -25 -19 -66 -25 -92 -7 -27 -16 -48 -19 -48 -4 0 -12 21 -18
48 -6 26 -21 83 -34 127 l-24 80 -67 3 c-41 2 -68 -1 -68 -7z"/>
<path d="M2010 1100 l0 -200 65 0 65 0 0 200 0 200 -65 0 -65 0 0 -200z"/>
</g>
</svg>
